#!OML:ASF I:\Random Stuff\random\construction\7_22_03\Session 2\subj1.ASF
:FULLY-SPECIFIED
:DEGREES
493
root 5.57657 17.6542 -7.32208 7.09834 -52.0181 -2.78081
lowerback -0.675632 1.29401 1.22105
upperback -0.926563 1.72049 0.103868
thorax -0.536934 0.852251 -0.573718
lowerneck -16.7931 -7.07771 -7.51207
upperneck 8.23415 -8.69207 6.84805
head 5.83969 -3.9813 2.48828
rclavicle 1.44181e-014 1.98785e-016
rhumerus 38.2232 7.3865 -59.3934
rradius 120.539
rwrist 0.813407
rhand -27.043 39.9656
rfingers 7.12502
rthumb -0.461622 9.98635
lclavicle 1.44181e-014 1.98785e-016
lhumerus -32.8385 -8.57961 87.7572
lradius 32.7756
lwrist 21.1655
lhand -26.4351 64.8644
lfingers 7.12502
lthumb 0.125526 265.156
rfemur 4.35587 9.1913 23.4873
rtibia 1.59028e-015
rfoot -9.03014 -37.7852
rtoes 17.4994
lfemur -13.1841 -14.3004 -13.995
ltibia 22.9439
lfoot -13.8341 20.2261
ltoes -24.269
494
root 5.5794 17.6539 -7.3232 7.07531 -52.0349 -2.78144
lowerback -0.660751 1.29582 1.15954
upperback -0.947506 1.72346 0.124456
thorax -0.569073 0.853882 -0.518966
lowerneck -16.8824 -7.1676 -7.53917
upperneck 8.10694 -8.80626 6.93843
head 5.82755 -4.03014 2.50691
rclavicle 6.77421e-014 1.15295e-014
rhumerus 38.5246 7.21825 -59.3579
rradius 120.496
rwrist 0.651698
rhand -27.3827 40.5756
rfingers 7.12502
rthumb -0.789734 10.5973
lclavicle 6.77421e-014 1.15295e-014
lhumerus -32.8066 -8.26314 87.6851
lradius 32.2782
lwrist 21.0652
lhand -26.6138 64.8402
lfingers 7.12502
lthumb -0.0471235 265.18
rfemur 4.37504 9.16517 23.4812
rtibia -1.59028e-014
rfoot -9.08729 -37.7273
rtoes 17.8496
lfemur -13.1771 -14.1662 -14.0087
ltibia 22.9576
lfoot -13.791 20.1289
ltoes -24.5385
495
root 5.58272 17.6533 -7.32364 7.0621 -52.0321 -2.80746
lowerback -0.629845 1.29047 1.15286
upperback -0.975835 1.71695 0.131608
thorax -0.615913 0.850285 -0.509143
lowerneck -16.9644 -7.23661 -7.54581
upperneck 8.00739 -8.90045 7.03997
head 5.82143 -4.06779 2.52805
rclavicle 1.78409e-014 -5.56597e-015
rhumerus 38.7832 7.13795 -59.2921
rradius 120.484
rwrist 0.527604
rhand -27.7845 40.9541
rfingers 7.12502
rthumb -1.1778 10.9777
lclavicle 1.78409e-014 -5.56597e-015
lhumerus -32.8342 -7.96132 87.5998
lradius 31.857
lwrist 20.98
lhand -26.5862 64.8665
lfingers 7.12502
lthumb -0.0203792 265.154
rfemur 4.40409 9.12094 23.4927
rtibia -6.36111e-015
rfoot -9.10742 -37.6633
rtoes 17.8822
lfemur -13.1628 -14.1897 -14.0043
ltibia 22.9822
lfoot -13.7164 20.1568
ltoes -24.938
496
root 5.58569 17.652 -7.32403 7.04276 -52.0218 -2.83334
lowerback -0.596867 1.28821 1.15955
upperback -1.00602 1.71453 0.12025
thorax -0.664788 0.84856 -0.525785
lowerneck -16.9279 -7.16714 -7.51993
upperneck 7.80248 -8.80101 7.01592
head 5.74098 -4.02328 2.53123
rclavicle -8.66577e-015 -9.83984e-015
rhumerus 38.9949 7.10188 -59.2458
rradius 120.491
rwrist 0.433893
rhand -28.1621 41.0797
rfingers 7.12502
rthumb -1.54247 11.1055
lclavicle -8.66577e-015 -9.83984e-015
lhumerus -32.9117 -7.76796 87.5364
lradius 31.5994
lwrist 21.0465
lhand -26.6847 64.9891
lfingers 7.12502
lthumb -0.11559 265.031
rfemur 4.44283 9.06897 23.5061
rtibia -1.43125e-014
rfoot -9.18983 -37.5863
rtoes 18.0161
lfemur -13.1499 -14.1725 -14.0018
ltibia 23.0204
lfoot -13.6657 20.1296
ltoes -25.3836
497
root 5.58788 17.6504 -7.32465 7.01975 -52.0185 -2.86354
lowerback -0.57926 1.29411 1.15569
upperback -1.03406 1.7227 0.100294
thorax -0.702724 0.852245 -0.544886
lowerneck -16.7555 -7.06427 -7.49658
upperneck 7.51927 -8.66121 6.98641
head 5.6111 -3.96325 2.54199
rclavicle 2.4991e-014 2.48481e-015
rhumerus 39.1319 7.06621 -59.2721
rradius 120.465
rwrist 0.430835
rhand -28.4956 41.2525
rfingers 7.12502
rthumb -1.86461 11.2809
lclavicle 2.4991e-014 2.48481e-015
lhumerus -32.9521 -7.59297 87.4425
lradius 31.3044
lwrist 21.0088
lhand -26.5328 64.8545
lfingers 7.12502
lthumb 0.0311605 265.166
rfemur 4.49444 9.02387 23.5257
rtibia 1.90833e-014
rfoot -9.30292 -37.5311
rtoes 18.3771
lfemur -13.1315 -14.0391 -13.9996
ltibia 23.0616
lfoot -13.6801 19.996
ltoes -25.6063
498
root 5.59038 17.6489 -7.325 6.99546 -51.9973 -2.87426
lowerback -0.588877 1.30441 1.13297
upperback -1.07049 1.73635 0.0771556
thorax -0.734342 0.858774 -0.556144
lowerneck -16.6413 -7.04247 -7.43631
upperneck 7.35172 -8.64868 7.01668
head 5.53799 -3.95738 2.54844
rclavicle 1.81143e-014 -2.08724e-015
rhumerus 39.1783 6.99683 -59.3369
rradius 120.434
rwrist 0.508037
rhand -28.7333 41.5636
rfingers 7.12502
rthumb -2.09411 11.5942
lclavicle 1.81143e-014 -2.08724e-015
lhumerus -32.9763 -7.3975 87.3134
lradius 30.9638
lwrist 20.7925
lhand -26.1936 64.5535
lfingers 7.12502
lthumb 0.358803 265.467
rfemur 4.53495 8.96055 23.5312
rtibia -7.95139e-015
rfoot -9.3972 -37.5082
rtoes 18.6618
lfemur -13.1324 -13.9176 -14.0007
ltibia 23.1012
lfoot -13.6889 19.8385
ltoes -25.3879
